<?xml version="1.0" encoding="UTF-8" standalone="no"?>
<!-- Created with Inkscape (http://www.inkscape.org/) -->

<svg
   xmlns:dc="http://purl.org/dc/elements/1.1/"
   xmlns:cc="http://creativecommons.org/ns#"
   xmlns:rdf="http://www.w3.org/1999/02/22-rdf-syntax-ns#"
   xmlns:svg="http://www.w3.org/2000/svg"
   xmlns="http://www.w3.org/2000/svg"
   version="1.1"
   width="468.42078"
   height="248.06572"
   id="svg2">
  <defs
     id="defs4" />
  <metadata
     id="metadata7">
    <rdf:RDF>
      <cc:Work
         rdf:about="">
        <dc:format>image/svg+xml</dc:format>
        <dc:type
           rdf:resource="http://purl.org/dc/dcmitype/StillImage" />
        <dc:title></dc:title>
      </cc:Work>
    </rdf:RDF>
  </metadata>
  <path
     d="m 211.32534,160.31704 -33.90927,-4.5e-4 0,-105.713832 33.90927,0"
     id="path3929"
     style="fill:none;stroke:#000000;stroke-width:1px;stroke-linecap:butt;stroke-linejoin:miter;stroke-opacity:1" />
  <g
     transform="matrix(1,0,0,-1,-312.96037,354.02652)"
     id="g3900">
    <path
       d="m 729.096,194.45974 0,29.56098 -117.63945,31.49435 0,27.32435 38.29834,0"
       id="path3902"
       style="fill:none;stroke:#000000;stroke-width:1;stroke-linecap:butt;stroke-linejoin:miter;stroke-miterlimit:4;stroke-opacity:1;stroke-dasharray:none" />
    <path
       d="m 705.71429,299.21602 60.71428,0"
       id="path3904"
       style="fill:none;stroke:#000000;stroke-width:1px;stroke-linecap:butt;stroke-linejoin:miter;stroke-opacity:1" />
    <path
       d="m 649.75489,315.69657 -68.00199,0"
       id="path3906"
       style="fill:none;stroke:#000000;stroke-width:1px;stroke-linecap:butt;stroke-linejoin:miter;stroke-opacity:1" />
    <path
       d="m 636.90222,270.34612 0,57.84375 35.34375,0 c 16.02643,0 28.9375,-12.87982 28.9375,-28.90625 0,-16.02643 -12.91107,-28.9375 -28.9375,-28.9375 l -35.34375,0 z"
       id="path3908"
       style="fill:#ffffff;fill-rule:evenodd;stroke:#000000;stroke-width:1px;stroke-linecap:butt;stroke-linejoin:miter;stroke-opacity:1" />
    <path
       d="m 352.14286,298.07648 a 4.285715,4.285715 0 1 1 -8.57143,0 4.285715,4.285715 0 1 1 8.57143,0 z"
       transform="translate(357.72815,1.19151)"
       id="path3910"
       style="fill:#ffffff;stroke:#000000" />
  </g>
  <path
     d="m 211.32534,21.745608 -183.269387,0"
     id="path3023"
     style="fill:none;stroke:#000000;stroke-width:1px;stroke-linecap:butt;stroke-linejoin:miter;stroke-opacity:1" />
  <path
     d="m 198.47267,9.2523079 0,57.8437501 35.34375,0 c 16.02643,0 28.9375,-12.87982 28.9375,-28.90625 0,-16.02643 -12.91107,-28.9375001 -28.9375,-28.9375001 l -35.34375,0 z"
     id="path3001"
     style="fill:#ffffff;fill-rule:evenodd;stroke:#000000;stroke-width:1px;stroke-linecap:butt;stroke-linejoin:miter;stroke-opacity:1" />
  <path
     d="m 271.44146,38.174178 a 4.285715,4.285715 0 0 1 -8.57143,0 4.285715,4.285715 0 1 1 8.57143,0 z"
     id="path3003"
     style="fill:#ffffff;stroke:#000000" />
  <path
     d="m 211.32534,193.17419 -103.99257,0 m -27.800787,0 -19.02743,0 0,-171.220422"
     id="path3045"
     style="fill:none;stroke:#000000;stroke-width:1px;stroke-linecap:butt;stroke-linejoin:miter;stroke-opacity:1" />
  <path
     d="m 198.47267,147.82374 0,57.84375 35.34375,0 c 16.02643,0 28.9375,-12.87982 28.9375,-28.90625 0,-16.02643 -12.91107,-28.9375 -28.9375,-28.9375 l -35.34375,0 z"
     id="path3049"
     style="fill:#ffffff;fill-rule:evenodd;stroke:#000000;stroke-width:1px;stroke-linecap:butt;stroke-linejoin:miter;stroke-opacity:1" />
  <g
     transform="translate(-312.96037,-138.82359)"
     id="g3891">
    <path
       d="m 729.096,194.45974 0,29.56098 -117.63945,31.49435 0,27.32435 38.29834,0"
       id="path3116"
       style="fill:none;stroke:#000000;stroke-width:1;stroke-linecap:butt;stroke-linejoin:miter;stroke-miterlimit:4;stroke-opacity:1;stroke-dasharray:none" />
    <path
       d="m 705.71429,299.21602 60.71428,0"
       id="path3104"
       style="fill:none;stroke:#000000;stroke-width:1px;stroke-linecap:butt;stroke-linejoin:miter;stroke-opacity:1" />
    <path
       d="m 649.75489,315.69657 -68.00199,0"
       id="path3106"
       style="fill:none;stroke:#000000;stroke-width:1px;stroke-linecap:butt;stroke-linejoin:miter;stroke-opacity:1" />
    <path
       d="m 636.90222,270.34612 0,57.84375 35.34375,0 c 16.02643,0 28.9375,-12.87982 28.9375,-28.90625 0,-16.02643 -12.91107,-28.9375 -28.9375,-28.9375 l -35.34375,0 z"
       id="path3110"
       style="fill:#ffffff;fill-rule:evenodd;stroke:#000000;stroke-width:1px;stroke-linecap:butt;stroke-linejoin:miter;stroke-opacity:1" />
    <path
       d="m 352.14286,298.07648 a 4.285715,4.285715 0 1 1 -8.57143,0 4.285715,4.285715 0 1 1 8.57143,0 z"
       transform="translate(357.72815,1.19151)"
       id="path3112"
       style="fill:#ffffff;stroke:#000000" />
  </g>
  <path
     d="m 417.65038,54.840888 a 1.5152289,1.5152289 0 1 1 -3.03045,0 1.5152289,1.5152289 0 1 1 3.03045,0 z"
     id="path3114"
     style="fill:#000000;stroke:#000000" />
  <path
     d="m 417.65038,160.39243 a 1.5152289,1.5152289 0 1 1 -3.03045,0 1.5152289,1.5152289 0 1 1 3.03045,0 z"
     id="path3898"
     style="fill:#000000;stroke:#000000" />
  <text
     x="457.75186"
     y="59.683945"
     id="text3912"
     xml:space="preserve"
     style="font-size:14.59582424px;font-style:normal;font-weight:normal;line-height:125%;letter-spacing:0px;word-spacing:0px;fill:#000000;fill-opacity:1;stroke:none;font-family:Sans"><tspan
       x="457.75186"
       y="59.683945"
       id="tspan3914">Q</tspan></text>
  <path
     d="m 463.50323,155.01992 c -1.04528,10e-6 -1.87674,0.38961 -2.4944,1.1688 -0.61292,0.77921 -0.91937,1.84112 -0.91937,3.18571 0,1.33986 0.30645,2.39938 0.91937,3.17858 0.61766,0.77921 1.44912,1.16881 2.4944,1.16881 1.04527,0 1.87198,-0.3896 2.48015,-1.16881 0.6129,-0.7792 0.91936,-1.83872 0.91937,-3.17858 -1e-5,-1.34459 -0.30647,-2.4065 -0.91937,-3.18571 -0.60817,-0.77919 -1.43488,-1.16879 -2.48015,-1.1688 m 2.0169,9.4716 1.89575,2.07392 -1.73895,0 -1.57504,-1.70332 c -0.1568,0.01 -0.27796,0.0166 -0.36347,0.0214 -0.0808,0.005 -0.15917,0.007 -0.23519,0.007 -1.49665,0 -2.69396,-0.49888 -3.59194,-1.49665 -0.89324,-1.00251 -1.33985,-2.34236 -1.33985,-4.01955 0,-1.68193 0.44661,-3.02178 1.33985,-4.01955 0.89798,-1.0025 2.09529,-1.50376 3.59194,-1.50377 1.49188,1e-5 2.68445,0.50127 3.57769,1.50377 0.89322,0.99777 1.33984,2.33762 1.33985,4.01955 -1e-5,1.23533 -0.24945,2.29248 -0.74832,3.17146 -0.49414,0.87898 -1.21158,1.52752 -2.15232,1.94563"
     id="path3921"
     style="font-size:14.59582424px;font-style:normal;font-weight:normal;line-height:125%;letter-spacing:0px;word-spacing:0px;fill:#000000;fill-opacity:1;stroke:none;font-family:Sans" />
  <path
     d="m 467.2876,151.21422 0,1.01914 -7.58299,0 0,-1.01914 7.58299,0"
     id="path3923"
     style="font-size:14.59582424px;font-style:normal;font-weight:normal;line-height:125%;letter-spacing:0px;word-spacing:0px;fill:#000000;fill-opacity:1;stroke:none;font-family:Sans" />
  <path
     d="m 455.32896,54.840888 a 1.5152289,1.5152289 0 1 1 -3.03045,0 1.5152289,1.5152289 0 1 1 3.03045,0 z"
     id="path3957"
     style="fill:#000000;stroke:#000000" />
  <path
     d="m 455.32896,160.39243 a 1.5152289,1.5152289 0 1 1 -3.03045,0 1.5152289,1.5152289 0 1 1 3.03045,0 z"
     id="path3959"
     style="fill:#000000;stroke:#000000" />
  <path
     d="m 62.887833,21.745608 a 1.5152289,1.5152289 0 1 1 -3.03045,0 1.5152289,1.5152289 0 1 1 3.03045,0 z"
     id="path3963"
     style="fill:#000000;stroke:#000000" />
  <path
     d="m 29.300263,21.745608 a 1.5152289,1.5152289 0 1 1 -3.03045,0 1.5152289,1.5152289 0 1 1 3.03045,0 z"
     id="path3974"
     style="fill:#000000;stroke:#000000" />
  <text
     x="6.3232632"
     y="26.826815"
     id="text3976"
     xml:space="preserve"
     style="font-size:14.59582424px;font-style:normal;font-weight:normal;line-height:125%;letter-spacing:0px;word-spacing:0px;fill:#000000;fill-opacity:1;stroke:none;font-family:Sans"><tspan
       x="6.3232632"
       y="26.826815"
       id="tspan3978">D</tspan></text>
  <text
     x="-0.81958973"
     y="113.25537"
     id="text3980"
     xml:space="preserve"
     style="font-size:14.59582424px;font-style:normal;font-weight:normal;line-height:125%;letter-spacing:0px;word-spacing:0px;fill:#000000;fill-opacity:1;stroke:none;font-family:Sans"><tspan
       x="-0.81958973"
       y="113.25537"
       id="tspan3982">Clk</tspan></text>
  <path
     d="m 176.68684,107.4599 -149.488757,0"
     id="path3984"
     style="fill:none;stroke:#000000;stroke-width:1px;stroke-linecap:butt;stroke-linejoin:miter;stroke-opacity:1" />
  <path
     d="m 178.92718,107.4599 a 1.5152289,1.5152289 0 1 1 -3.03045,0 1.5152289,1.5152289 0 1 1 3.03045,0 z"
     id="path3986"
     style="fill:#000000;stroke:#000000" />
  <path
     d="m 29.300263,107.4599 a 1.5152289,1.5152289 0 1 1 -3.03045,0 1.5152289,1.5152289 0 1 1 3.03045,0 z"
     id="path3988"
     style="fill:#000000;stroke:#000000" />
  <path
     d="m 271.44146,176.74561 a 4.285715,4.285715 0 0 1 -8.57143,0 4.285715,4.285715 0 1 1 8.57143,0 z"
     id="path3051"
     style="fill:#ffffff;stroke:#000000" />
  <g
     transform="translate(-319.38894,-200.17676)"
     id="g4043">
    <path
       d="m 427.31107,376.92238 -28.28348,-4.5e-4 0,32.8576 28.28348,0"
       id="path4034"
       style="fill:none;stroke:#000000;stroke-width:1px;stroke-linecap:butt;stroke-linejoin:miter;stroke-opacity:1" />
    <path
       d="m 414.4584,364.42908 0,57.84375 35.34375,0 c 16.02643,0 28.9375,-12.87982 28.9375,-28.90625 0,-16.02643 -12.91107,-28.9375 -28.9375,-28.9375 z"
       id="path4036"
       style="fill:#ffffff;fill-rule:evenodd;stroke:#000000;stroke-width:1px;stroke-linecap:butt;stroke-linejoin:miter;stroke-opacity:1" />
    <path
       d="m 352.14286,298.07648 a 4.285715,4.285715 0 1 1 -8.57143,0 4.285715,4.285715 0 1 1 8.57143,0 z"
       transform="translate(135.28433,95.274465)"
       id="path4038"
       style="fill:#ffffff;stroke:#000000" />
    <path
       d="m 728.82504,198.2782 a 1.5152289,1.5152289 0 1 1 -3.03045,0 1.5152289,1.5152289 0 1 1 3.03045,0 z"
       transform="translate(-328.29313,195.07253)"
       id="path4041"
       style="fill:#000000;stroke:#000000" />
  </g>
  <text
     x="243.35449"
     y="233.05264"
     id="text3069"
     xml:space="preserve"
     style="font-size:14.59582424px;font-style:normal;font-weight:normal;line-height:125%;letter-spacing:0px;word-spacing:0px;fill:#000000;fill-opacity:1;stroke:none;font-family:Sans"><tspan
       x="243.35449"
       y="233.05264"
       id="tspan3071">SR Flip-flop</tspan></text>
  <text
     x="109.7517"
     y="247.85904"
     id="text3843"
     xml:space="preserve"
     style="font-size:14.59582424px;font-style:normal;font-weight:normal;line-height:125%;letter-spacing:0px;word-spacing:0px;fill:#000000;fill-opacity:1;stroke:none;font-family:Sans"><tspan
       x="109.7517"
       y="247.85904"
       id="tspan3845">Not</tspan></text>
</svg>
